<svg xmlns="http://www.w3.org/2000/svg" viewBox="0 0 64 64"><defs><style>.cls-1{fill:#0090e0;}.cls-2{fill:#74d800;}.cls-3{fill:#5dad00;}.cls-4{fill:#ffda00;}.cls-5{fill:#ccae00;}.cls-6{fill:#78909c;}.cls-7{fill:#ff00b7;}</style></defs><title>Image Editing</title><g id="Layer_2" data-name="Layer 2"><g id="Layer_1-2" data-name="Layer 1"><path class="cls-1" d="M54,4V50a4.08,4.08,0,0,1-2,3.64,2.91,2.91,0,0,1-1.39.36H3.38C1.51,54,0,52.21,0,50V4C0,1.79,1.51,0,3.38,0H50.62C52.49,0,54,1.79,54,4Z"/><path class="cls-2" d="M46,54H3.38C1.51,54,0,52.21,0,50V36L14,22Z"/><path class="cls-3" d="M54,48v2a4.08,4.08,0,0,1-2,3.64,2.91,2.91,0,0,1-1.39.36H24L42,36Z"/><circle class="cls-4" cx="14" cy="14" r="6"/><path class="cls-4" d="M64,25.66a5.66,5.66,0,0,1-1.66,4L32,60,20,64l4-12L54.34,21.66a5.66,5.66,0,0,1,9.66,4Z"/><polygon class="cls-5" points="32 60 20 64 24 52 32 60"/><polygon class="cls-6" points="26 62 20 64 22 58 26 62"/><path class="cls-7" d="M64,25.66a5.66,5.66,0,0,1-1.66,4L58,34l-8-8,4.34-4.34a5.66,5.66,0,0,1,9.66,4Z"/></g></g></svg>